<?xml version="1.0" standalone="no"?>
<!DOCTYPE svg PUBLIC "-//W3C//DTD SVG 20010904//EN"
 "http://www.w3.org/TR/2001/REC-SVG-20010904/DTD/svg10.dtd">
<svg version="1.0" xmlns="http://www.w3.org/2000/svg"
 width="297.000000pt" height="170.000000pt" viewBox="0 0 297.000000 170.000000"
 preserveAspectRatio="xMidYMid meet">

<g transform="translate(0.000000,170.000000) scale(0.100000,-0.100000)"
fill="#000000" stroke="none">
<path d="M0 850 l0 -850 1485 0 1485 0 0 850 c0 962 7 895 -81 798 -40 -45
-50 -51 -66 -42 -18 11 -19 15 -22 55 -1 18 -3 19 -16 5 -8 -8 -12 -22 -9 -31
5 -11 0 -18 -15 -22 -25 -6 -29 -31 -5 -29 39 3 21 -23 -30 -44 -30 -12 -57
-29 -61 -38 -5 -14 -7 -14 -15 -2 -8 13 -10 13 -10 -1 0 -8 -16 -23 -35 -32
-49 -23 -58 -22 -51 8 4 14 3 24 -1 23 -11 -4 -56 42 -49 50 3 3 6 2 6 -2 0
-4 9 2 20 12 24 22 19 44 -19 82 l-26 25 -23 -21 c-24 -23 -29 -44 -9 -44 6 0
1 -9 -13 -20 -25 -19 -22 -24 13 -21 16 2 21 -7 15 -26 -2 -5 -7 -7 -11 -5 -5
1 -6 -2 -2 -8 3 -5 -1 -13 -9 -16 -22 -8 -20 -21 4 -27 11 -3 20 -10 20 -17 0
-6 -4 -8 -10 -5 -5 3 -21 -4 -34 -17 -40 -37 -56 -49 -56 -42 0 3 -7 1 -15 -6
-8 -7 -15 -9 -15 -4 0 5 -5 2 -10 -6 -9 -13 -10 -13 -10 0 0 13 -1 13 -10 0
-6 -10 -10 -11 -10 -2 0 6 -9 12 -19 12 -11 0 -21 8 -23 18 -2 12 -8 6 -21
-20 -21 -43 -37 -57 -38 -31 0 10 -6 2 -13 -17 -7 -19 -19 -35 -27 -35 -8 0
-16 -13 -19 -30 -4 -24 -10 -30 -30 -30 -14 0 -33 -8 -42 -19 -17 -18 -18 -18
-24 -1 -6 15 -10 12 -24 -16 -9 -19 -22 -33 -28 -31 -7 1 -12 -6 -13 -15 -1
-12 -4 -10 -9 7 -8 25 -8 24 -9 -5 -1 -23 -3 -27 -11 -15 -7 12 -10 12 -10 1
0 -7 -6 -11 -15 -7 -8 3 -15 0 -15 -7 0 -8 -3 -8 -8 -2 -4 6 -14 10 -22 10 -8
0 -18 4 -22 10 -7 9 -13 -26 -9 -49 1 -5 -4 -4 -12 3 -12 9 -16 7 -20 -10 -3
-11 -10 -18 -15 -15 -6 3 -13 0 -15 -6 -4 -8 -6 -7 -6 4 -1 13 -8 15 -28 12
-15 -3 -31 -11 -35 -17 -6 -9 -8 -9 -8 1 0 21 -16 13 -30 -15 l-13 -28 -7 25
-6 25 -8 -25 c-4 -15 -10 -20 -13 -12 -7 17 -23 15 -23 -3 0 -11 -5 -12 -24
-5 -17 6 -26 5 -30 -3 -3 -9 -5 -9 -5 1 -1 6 -9 12 -18 12 -25 0 -121 -50
-127 -66 -8 -20 14 -17 29 3 7 9 22 17 34 18 26 2 27 -4 4 -21 -30 -22 5 -17
37 6 20 14 37 18 59 14 17 -4 31 -9 31 -13 0 -10 64 -5 87 7 38 20 39 13 4
-18 l-34 -30 36 0 c19 0 37 -4 39 -9 2 -7 85 -14 273 -23 22 -1 -7 -5 -65 -9
-58 -5 -132 -12 -165 -17 -54 -8 -48 -9 68 -11 70 0 127 -4 127 -8 0 -5 -65
-7 -145 -7 -123 2 -145 0 -145 -13 0 -11 7 -14 25 -9 18 5 25 2 25 -8 0 -17
30 -30 31 -13 0 7 4 3 9 -8 8 -18 9 -18 10 5 l1 25 13 -24 c10 -18 15 -20 19
-10 3 8 6 5 6 -8 1 -13 7 -23 16 -23 8 0 15 -7 15 -16 0 -11 6 -15 20 -11 11
3 20 1 20 -4 0 -4 7 -6 15 -3 10 4 15 0 15 -12 0 -14 2 -16 9 -6 7 11 9 11 14
-2 6 -16 -2 -20 -33 -17 -11 1 -10 -2 3 -10 10 -6 37 -9 59 -7 38 4 39 2 36
-22 -6 -41 36 -70 45 -33 2 10 4 7 3 -7 -2 -19 3 -27 19 -28 11 -1 29 -3 40
-5 12 -1 22 -12 25 -27 3 -14 12 -25 19 -25 8 0 20 -16 27 -35 7 -19 13 -27
13 -17 2 42 25 11 47 -63 l8 -25 6 25 c4 14 12 24 18 22 7 -1 12 5 12 13 0 18
20 20 21 3 0 -7 4 -4 9 7 6 13 9 15 9 5 1 -13 2 -13 11 0 6 10 10 11 10 3 0
-7 7 -13 15 -13 8 0 15 -5 15 -10 0 -6 12 -22 26 -35 15 -14 22 -25 15 -25 -6
0 -11 -11 -11 -25 0 -14 5 -25 12 -25 9 0 9 -3 0 -12 -18 -18 -15 -28 8 -28
28 0 25 -28 -2 -32 -15 -2 -22 -9 -20 -19 3 -21 -95 -31 -198 -19 -60 7 -80 6
-98 -6 -28 -19 -136 -17 -176 3 -15 8 -37 13 -47 10 -10 -3 -20 0 -21 5 -3 7
-46 9 -118 7 -171 -5 -261 -4 -405 4 -223 13 -279 18 -322 29 -37 9 -42 14
-45 42 -2 23 -8 31 -23 31 -17 0 -20 8 -23 57 -2 48 0 60 18 75 26 23 26 53 0
53 -17 0 -20 7 -20 43 0 42 1 44 30 44 16 0 27 -4 24 -9 -3 -4 -1 -8 5 -8 6 0
17 -13 26 -30 9 -16 22 -30 30 -30 25 0 84 -35 86 -50 0 -10 2 -11 6 -2 10 25
41 13 53 -22 14 -45 82 -122 98 -112 7 4 12 16 12 27 0 13 7 19 21 19 11 0 17
4 14 10 -7 12 3 13 68 10 35 -1 53 3 70 18 12 11 40 36 61 56 22 19 44 32 49
29 6 -3 8 -2 4 3 -3 5 1 20 9 34 12 23 20 15 15 -15 -1 -5 6 -2 15 7 14 14 15
20 6 30 -16 16 -15 41 1 35 18 -7 74 21 81 39 4 11 -4 14 -34 14 -21 0 -42 5
-45 10 -4 6 5 10 19 10 44 0 28 18 -21 26 -27 3 -54 11 -60 16 -7 6 -20 8 -28
4 -8 -3 -15 -1 -15 4 0 5 -7 7 -15 4 -8 -4 -15 -15 -15 -25 0 -10 -5 -19 -11
-19 -6 0 -8 13 -5 35 4 26 2 35 -8 35 -8 0 -16 -5 -18 -12 -3 -7 -11 -9 -24
-4 -13 6 -15 10 -6 13 10 4 8 9 -6 19 -17 12 -24 11 -52 -3 -34 -17 -143 -26
-134 -11 3 4 14 8 24 8 10 0 22 5 26 12 5 8 2 9 -9 5 -12 -5 -17 -1 -17 13 0
25 -15 33 -38 21 -15 -8 -24 -4 -44 19 -21 24 -27 27 -32 14 -3 -9 -12 -14
-20 -11 -8 3 -23 -1 -34 -9 -17 -12 -21 -12 -26 1 -3 8 -12 15 -21 15 -8 0
-15 7 -15 15 0 8 -6 15 -12 16 -65 4 -75 10 -58 36 9 14 10 15 6 1 -4 -13 5
-18 44 -23 26 -4 64 -2 84 3 20 6 36 8 36 5 0 -3 7 0 15 7 8 7 22 10 30 6 9
-3 15 0 15 8 0 15 27 30 48 27 24 -4 11 8 -33 30 -44 22 -62 43 -45 54 5 3 14
-4 20 -15 8 -14 17 -19 30 -15 10 3 22 0 26 -6 5 -9 2 -10 -10 -6 -10 4 -15 3
-11 -3 3 -6 15 -10 26 -10 26 0 20 21 -9 36 -36 18 -34 21 11 14 30 -4 45 -1
53 9 9 11 19 12 54 3 35 -9 47 -8 67 5 13 9 23 21 22 27 -1 6 -1 20 0 31 2 19
2 19 15 3 16 -22 26 -23 26 -3 0 17 26 20 36 4 3 -6 15 -9 25 -6 11 3 17 1 13
-4 -10 -17 13 -9 30 10 10 11 35 23 57 26 32 6 39 11 39 30 0 12 7 26 16 29 8
3 12 2 9 -4 -3 -6 -1 -10 4 -10 21 0 11 31 -14 42 -13 6 -22 15 -19 20 3 5 0
16 -8 25 -12 15 -10 16 15 9 20 -5 29 -2 34 10 4 12 8 13 14 3 4 -8 11 -11 14
-8 3 4 0 11 -7 17 -9 7 -24 6 -48 -2 -27 -9 -34 -16 -33 -34 2 -16 -3 -22 -18
-22 -11 0 -34 -7 -52 -15 -18 -8 -24 -10 -13 -3 49 33 68 57 61 78 -5 16 -10
19 -18 11 -14 -14 -30 -15 -22 -1 3 6 1 10 -4 10 -6 0 -11 6 -11 14 0 18 -98
108 -110 101 -6 -3 -10 -2 -10 4 0 21 -36 30 -75 18 l-38 -11 29 -14 c24 -11
25 -12 4 -7 -68 18 -77 17 -97 -8 l-20 -25 0 44 c0 24 1 44 2 44 2 0 19 -7 40
-16 43 -18 51 -14 35 15 -13 26 -27 27 -33 4 -3 -10 -5 5 -6 32 l-2 50 -38
-42 c-21 -23 -46 -64 -56 -90 -23 -63 -32 -73 -64 -73 -15 0 -31 -4 -36 -9 -6
-5 -27 -14 -47 -20 -21 -7 -40 -21 -43 -32 -4 -10 -11 -19 -17 -19 -6 0 -8 -9
-5 -20 3 -11 1 -20 -4 -20 -5 0 -9 5 -9 10 0 6 -11 16 -25 22 -22 10 -26 17
-23 47 2 29 7 36 23 33 17 -2 20 3 20 39 0 30 -5 44 -20 52 -22 13 -31 36 -15
38 6 1 16 2 23 3 6 1 11 9 11 19 -1 9 2 17 6 17 5 0 6 9 3 20 -3 11 -11 20
-18 20 -7 0 -19 8 -26 17 -12 15 -12 16 1 8 8 -5 20 -10 25 -12 6 -1 25 -6 43
-12 28 -8 33 -8 28 4 -3 9 0 12 10 8 8 -3 20 -1 27 5 6 5 32 12 57 15 25 2
112 16 194 31 83 14 170 26 195 27 26 0 55 4 66 9 11 5 -325 9 -782 9 l-803 1
0 -850z m885 752 c-11 -2 -24 -10 -28 -18 -4 -8 -14 -14 -22 -14 -8 0 -17 -5
-21 -11 -5 -8 0 -10 17 -6 13 3 31 1 39 -4 12 -9 11 -10 -4 -5 -17 6 -18 5 -4
-16 9 -13 22 -23 29 -24 8 0 18 -2 24 -2 12 -2 -40 -52 -55 -52 -5 0 -10 -4
-10 -10 0 -5 5 -10 11 -10 5 0 8 -4 5 -9 -4 -5 0 -11 6 -14 10 -3 8 -10 -6
-26 -16 -17 -16 -21 -4 -21 21 0 18 -33 -4 -42 -24 -10 -12 -48 16 -48 18 -1
19 -2 4 -10 -22 -13 -21 -70 1 -70 14 -1 13 -2 -2 -11 -21 -12 -40 -2 -33 18
3 8 2 12 -3 9 -13 -8 -44 31 -38 48 4 9 -1 17 -14 21 -10 4 -19 10 -19 15 0
12 -59 40 -84 40 -27 0 -97 37 -113 60 -7 10 -26 20 -43 23 -38 8 -74 41 -67
61 3 9 1 18 -5 22 -17 11 13 24 57 25 68 1 89 17 23 18 -54 1 -90 15 -45 17
12 1 51 5 87 10 l65 9 -63 5 c-70 6 -82 26 -12 23 93 -6 150 -15 145 -24 -4
-5 -16 -9 -28 -10 -21 0 -21 -1 -2 -8 24 -10 90 -3 128 12 29 13 36 27 13 27
-8 0 -17 3 -19 8 -3 4 18 5 46 3 29 -3 43 -6 32 -9z m-485 -1 c0 -12 -20 -25
-27 -18 -7 7 6 27 18 27 5 0 9 -4 9 -9z m400 -11 c0 -5 -9 -10 -20 -10 -11 0
-20 5 -20 10 0 6 9 10 20 10 11 0 20 -4 20 -10z m-320 -10 c0 -5 -2 -10 -4
-10 -3 0 -8 5 -11 10 -3 6 -1 10 4 10 6 0 11 -4 11 -10z m-216 -36 c15 -6 15
-8 -1 -20 -16 -12 -15 -14 14 -20 18 -3 31 -10 28 -14 -9 -14 -54 2 -60 21 -4
10 -13 19 -21 19 -8 0 -14 5 -14 10 0 11 30 13 54 4z m139 -21 c-7 -2 -19 -2
-25 0 -7 3 -2 5 12 5 14 0 19 -2 13 -5z m517 -169 c0 -8 -5 -12 -10 -9 -6 4
-8 11 -5 16 9 14 15 11 15 -7z m650 -2 c0 -5 -11 -14 -25 -20 -18 -9 -26 -8
-31 1 -4 7 -4 9 1 5 4 -4 17 -1 29 7 24 17 26 18 26 7z m43 -46 c-10 -13 -20
-22 -22 -20 -4 4 29 44 36 44 2 0 -4 -11 -14 -24z m-103 5 c0 -6 -4 -13 -10
-16 -5 -3 -10 1 -10 9 0 9 5 16 10 16 6 0 10 -4 10 -9z m38 -15 c-22 -16 -24
-40 -2 -32 9 3 12 2 9 -5 -4 -6 -13 -8 -21 -5 -8 3 -14 1 -14 -4 0 -6 6 -10
13 -11 6 0 2 -5 -10 -11 -25 -12 -40 -41 -24 -46 6 -2 9 -8 5 -13 -10 -16 -24
1 -24 30 0 15 9 36 20 46 11 10 20 24 20 31 0 7 8 18 18 23 24 15 30 13 10 -3z
m-1063 -66 c3 -5 1 -10 -4 -10 -6 0 -11 5 -11 10 0 6 2 10 4 10 3 0 8 -4 11
-10z m484 -72 c8 -2 16 -15 18 -28 3 -23 3 -23 -22 4 -14 15 -25 32 -25 39 0
8 2 9 8 1 4 -6 13 -13 21 -16z m-59 1 c12 -8 10 -9 -7 -4 -15 4 -23 2 -23 -6
0 -7 -3 -10 -6 -6 -7 7 4 27 14 27 4 0 14 -5 22 -11z m-50 -3 c0 -3 -4 -8 -10
-11 -5 -3 -10 -1 -10 4 0 6 5 11 10 11 6 0 10 -2 10 -4z m190 -27 c0 -6 -4 -7
-10 -4 -5 3 -10 1 -10 -6 0 -7 -3 -10 -6 -6 -10 10 5 39 16 32 5 -3 10 -11 10
-16z m-40 1 c0 -5 -2 -10 -4 -10 -3 0 -8 5 -11 10 -3 6 -1 10 4 10 6 0 11 -4
11 -10z m280 -46 c0 -2 -11 -4 -25 -4 -14 0 -25 4 -25 9 0 4 11 6 25 3 14 -2
25 -6 25 -8z m-171 -67 c65 -39 75 -57 31 -57 -26 0 -30 3 -25 19 4 13 0 21
-12 25 -23 8 -71 46 -58 45 6 0 34 -14 64 -32z m-502 -14 c61 -42 64 -52 8
-23 -22 11 -45 20 -53 20 -7 0 -10 5 -7 10 3 6 1 10 -4 10 -6 0 -11 5 -11 10
0 16 11 12 67 -27z m1962 28 c8 -5 -1 -8 -27 -7 -23 0 -35 4 -29 8 16 10 39
10 56 -1z m-819 -56 c0 -11 -10 -15 -37 -14 l-38 1 30 13 c39 18 45 18 45 0z
m110 11 c0 -3 -4 -8 -10 -11 -5 -3 -10 -1 -10 4 0 6 5 11 10 11 6 0 10 -2 10
-4z m-1140 -41 c7 -8 19 -15 26 -15 8 0 14 -4 14 -10 0 -14 -2 -13 -51 15 -33
18 -39 25 -23 25 12 0 27 -7 34 -15z m1621 -15 c-55 -25 -65 -25 -26 -1 17 11
39 20 50 20 11 0 1 -8 -24 -19z m-271 -4 c0 -11 -19 -15 -25 -6 -3 5 1 10 9
10 9 0 16 -2 16 -4z m-925 -106 c-4 -6 -84 -9 -213 -8 l-207 2 155 6 c85 3
181 7 213 8 37 1 56 -2 52 -8z m95 6 c0 -8 -48 -12 -66 -5 -13 5 -7 8 24 8 23
1 42 -1 42 -3z m1189 -12 c10 -9 -465 -3 -478 5 -9 6 82 7 230 4 134 -3 246
-7 248 -9z m-1319 -39 c27 -16 25 -17 -36 -19 -54 -3 -49 24 6 32 3 1 16 -5
30 -13z m-350 -40 c0 -2 -18 -14 -40 -25 -48 -25 -52 -20 -7 9 31 20 47 26 47
16z m1560 -11 c0 -2 -7 -4 -15 -4 -8 0 -15 4 -15 10 0 5 7 7 15 4 8 -4 15 -8
15 -10z m47 -20 c-3 -3 -12 -4 -19 -1 -8 3 -5 6 6 6 11 1 17 -2 13 -5z m-1718
-18 c-2 -2 -24 -17 -48 -35 -47 -33 -81 -43 -44 -12 12 10 19 22 15 26 -4 5 1
5 10 2 10 -3 27 2 40 13 13 10 25 16 27 14 2 -2 2 -6 0 -8z m851 -1 c7 -8 19
-15 27 -15 8 0 12 -4 8 -9 -8 -14 -65 8 -65 25 0 18 14 18 30 -1z m1060 -35
c0 -5 -10 -10 -22 -9 -22 0 -22 1 -3 9 11 5 21 9 23 9 1 1 2 -3 2 -9z m-1072
-25 c-3 -3 -9 2 -12 12 -6 14 -5 15 5 6 7 -7 10 -15 7 -18z m77 5 c16 -17 16
-20 3 -15 -9 4 -19 13 -22 21 -7 19 -2 18 19 -6z m-655 -38 c0 -41 -1 -43 -27
-40 -22 2 -28 -1 -29 -17 0 -11 4 -28 9 -39 6 -13 5 -21 -3 -26 -20 -13 0 -32
26 -26 20 5 24 3 24 -18 0 -19 -6 -25 -27 -28 -24 -3 -28 -7 -25 -31 3 -33
-15 -60 -35 -53 -7 3 -13 2 -13 -3 0 -4 -35 -9 -77 -10 -43 -1 -105 -6 -138
-10 -46 -7 -68 -5 -95 7 -19 8 -39 14 -44 13 -5 -1 -5 6 0 16 4 10 8 44 8 76
1 62 7 69 30 35 l15 -21 20 24 c11 13 21 33 21 44 0 14 12 25 43 36 65 24 143
49 155 49 13 0 11 -82 -1 -91 -5 -3 -1 -13 7 -22 9 -8 16 -24 16 -34 0 -10 5
-25 10 -33 7 -11 10 -5 10 23 0 20 3 37 8 37 4 0 7 16 7 35 0 19 -4 35 -9 35
-5 0 -1 9 8 19 12 13 14 21 6 26 -16 10 50 70 78 70 19 0 22 -5 22 -43z m595
8 c3 -5 1 -10 -4 -10 -6 0 -11 5 -11 10 0 6 2 10 4 10 3 0 8 -4 11 -10z m30
-30 c3 -5 1 -10 -4 -10 -6 0 -11 5 -11 10 0 6 2 10 4 10 3 0 8 -4 11 -10z
m-241 -89 l26 -15 -31 -13 c-42 -18 -52 -17 -40 5 5 9 7 31 5 47 -4 24 -3 26
5 10 5 -11 21 -27 35 -34z m-910 -27 c12 -5 16 -20 16 -63 -1 -49 -4 -58 -28
-76 -15 -11 -22 -13 -16 -5 5 8 10 22 9 30 0 8 6 21 15 27 13 11 12 15 -7 30
-16 13 -20 22 -13 33 5 8 6 18 4 22 -6 10 -1 10 20 2z m64 -29 c-1 -22 -6 -35
-15 -35 -16 0 -17 42 -1 58 17 17 18 16 16 -23z m2062 -41 c0 -26 -17 -33 -26
-9 -8 20 3 48 16 40 5 -3 10 -17 10 -31z m-40 11 c0 -8 -4 -15 -8 -15 -5 0 -9
7 -9 15 0 8 4 15 9 15 4 0 8 -7 8 -15z m83 -10 c18 0 77 -58 77 -75 0 -10 5
-22 10 -25 21 -13 8 -21 -34 -20 -42 0 -45 2 -51 31 -3 18 -12 37 -20 44 -19
16 -21 65 -2 53 6 -4 15 -8 20 -8z m132 -103 c-8 -9 -45 11 -45 24 0 12 4 12
24 -3 13 -10 23 -20 21 -21z m-2290 18 c3 -5 -1 -10 -10 -10 -9 0 -13 5 -10
10 3 6 8 10 10 10 2 0 7 -4 10 -10z m1648 -217 c-7 -2 -19 -2 -25 0 -7 3 -2 5
12 5 14 0 19 -2 13 -5z"/>
<path d="M608 1543 c6 -2 18 -2 25 0 6 3 1 5 -13 5 -14 0 -19 -2 -12 -5z"/>
<path d="M1504 1539 c-4 -8 -3 -9 4 -5 8 5 10 1 5 -9 -5 -13 -8 -14 -15 -3 -7
10 -11 9 -23 -6 -18 -23 -19 -36 -4 -36 5 0 7 5 3 11 -4 8 1 9 17 4 13 -4 26
-12 27 -16 2 -5 8 -9 13 -9 6 0 7 5 3 11 -3 6 0 15 7 20 11 6 11 13 3 26 -14
22 -30 27 -40 12z"/>
<path d="M1835 1438 c-17 -4 -37 -5 -46 -3 -10 4 -19 -1 -23 -12 -5 -13 -9
-14 -15 -5 -5 8 -22 -2 -55 -34 -51 -49 -55 -61 -12 -44 15 5 40 10 56 10 16
0 30 4 32 10 2 5 27 10 56 11 64 3 82 19 55 52 -15 20 -23 22 -48 15z"/>
<path d="M1746 1211 c-6 -9 54 -24 63 -16 7 8 -20 25 -41 25 -9 0 -19 -4 -22
-9z"/>
<path d="M1460 1089 c0 -11 -4 -18 -9 -14 -5 3 -12 1 -16 -5 -4 -6 5 -10 19
-10 14 0 26 4 26 9 0 5 3 16 6 25 4 11 1 16 -10 16 -9 0 -16 -8 -16 -21z"/>
<path d="M1302 1048 c5 -15 28 -18 29 -3 0 6 -7 12 -17 13 -10 3 -15 -1 -12
-10z"/>
<path d="M1415 950 c3 -5 8 -10 11 -10 2 0 4 5 4 10 0 6 -5 10 -11 10 -5 0 -7
-4 -4 -10z"/>
<path d="M1628 953 c7 -3 16 -2 19 1 4 3 -2 6 -13 5 -11 0 -14 -3 -6 -6z"/>
<path d="M1640 860 c0 -5 4 -10 9 -10 6 0 13 5 16 10 3 6 -1 10 -9 10 -9 0
-16 -4 -16 -10z"/>
<path d="M1753 718 c-27 -13 -30 -29 -5 -24 43 8 72 19 72 27 0 12 -40 10 -67
-3z"/>
<path d="M1704 635 c-10 -8 -14 -14 -9 -14 6 0 19 6 29 14 11 8 15 15 10 15
-6 0 -19 -7 -30 -15z"/>
<path d="M1653 601 c3 -16 1 -34 -6 -41 -9 -10 -9 -11 2 -5 7 4 16 4 20 -1 3
-5 15 -14 25 -20 11 -6 24 -19 30 -30 6 -10 12 -21 14 -24 2 -2 7 2 13 10 6
10 11 12 17 4 9 -14 102 -25 102 -13 0 5 7 9 15 9 18 0 20 24 3 37 -7 5 -24
10 -38 11 -47 2 -90 13 -90 23 0 5 -12 7 -27 3 l-28 -6 23 19 c27 22 20 33
-20 33 -15 0 -28 5 -28 10 0 6 -7 10 -16 10 -13 0 -15 -7 -11 -29z"/>
<path d="M1529 479 c-8 -5 -7 -8 4 -10 11 -3 9 -9 -11 -24 -22 -15 -24 -16
-13 -2 13 16 12 17 -14 7 -46 -18 -47 -21 -14 -46 37 -27 59 -31 59 -10 0 8 7
21 15 30 9 8 15 19 14 23 -3 19 2 27 10 15 7 -11 9 -11 14 1 4 11 -3 16 -23
19 -16 3 -35 1 -41 -3z"/>
</g>
</svg>
